Love for All and Sharing is the first step to solving all the problems of humanity.

Website I want to share. 
               
   http://www.scenetime.com
 
 
  Credit to EVERYONE for sharing and seeding back
 especially to SCENETIME.COM where i get all my 
 downloads.


 support www.scenetime.com to grow faster.

                             
                                                            
                                                   

.                 ..................................NFO:....................................*******************************************************************************
                  My.Rainy.Days.2009.DVDRip.AC3.X264-BARC0DE
*******************************************************************************

-------------------------------------------------------------------------------
                              General Information
-------------------------------------------------------------------------------
Type.................: Movie
Name.................: My Rainy Days - Tenshi no koi (original title)
Movie Information....: http://www.imdb.com/title/tt1538401/
Genre................: Drama
Subs.................: Hardcoded English
-------------------------------------------------------------------------------
                                    PLOT
-------------------------------------------------------------------------------
17 year old high school studentRio (Nozomi Sasaki) is always the center of attention 
due to her beauty. Yet, Rio has never cared about anyone but herself due to her 
traumatic past. Her friends and boyfriends exist only so she can use them for her 
gains. Rio is only interested in money.Then one day she meets 35 year college 
professor Kouki and falls in love for the first time.

-------------------------------------------------------------------------------
                                    CAST
-------------------------------------------------------------------------------
Nozomi Sasaki	... 	Rio
Shsuke Tanihara		
Hikaru Yamamoto		
Mitsuki ishi		
Saki Kagami

-------------------------------------------------------------------------------
                                    MEDiA iNFO
-------------------------------------------------------------------------------

General
Complete name                    : My.Rainy.Days.2009.DVDRip.AC3.X264-BARC0DE.mkv
Format                           : Matroska
File size                        : 1.46 GiB
Duration                         : 1h 59mn
Overall bit rate                 : 1 739 Kbps


Video
ID                               : 1
Format                           : AVC
Format/Info                      : Advanced Video Codec
Format profile                   : High@L3.0
Format settings, CABAC           : Yes
Format settings, ReFrames        : 3 frames
Muxing mode                      : Container profile=Unknown@3.0
Codec ID                         : V_MPEG4/ISO/AVC
Duration                         : 1h 59mn
Bit rate                         : 1 296 Kbps
Width                            : 720 pixels
Height                           : 400 pixels
Display aspect ratio             : 16:9
Frame rate                       : 23.976 fps
Color space                      : YUV
Chroma subsampling               : 4:2:0
Bit depth                        : 8 bits
Scan type                        : Progressive
Bits/(Pixel*Frame)               : 0.188
Stream size                      : 1.05 GiB (72%)
Writing library                  : x264 core 79


Audio
ID                               : 2
Format                           : AC-3
Format/Info                      : Audio Coding 3
Mode extension                   : CM (complete main)
Codec ID                         : A_AC3
Duration                         : 1h 59mn
Bit rate mode                    : Constant
Bit rate                         : 448 Kbps
Channel(s)                       : 6 channels
Channel positions                : Front: L C R, Side: L R, LFE
Sampling rate                    : 48.0 KHz
Stream size                      : 384 MiB (26%)
Language                         : Japanese

Menu
00:00:00.000                     : Chapter 1
00:03:28.074                     : Chapter 2
00:12:35.738                     : Chapter 3
00:21:13.772                     : Chapter 4
00:24:03.642                     : Chapter 5
00:27:12.530                     : Chapter 6
00:32:57.475                     : Chapter 7
00:36:40.698                     : Chapter 8
00:47:00.517                     : Chapter 9
00:50:41.521                     : Chapter 10
00:58:11.554                     : Chapter 11
01:01:21.377                     : Chapter 12
01:05:56.936                     : Chapter 13
01:12:18.534                     : Chapter 14
01:18:42.751                     : Chapter 15
01:21:50.889                     : Chapter 16
01:31:30.651                     : Chapter 17
01:37:26.907                     : Chapter 18
01:49:30.630                     : Chapter 19
01:55:12.972                     : Chapter 20